# xmcd CD database file
#
# Track frame offsets:
#	150
#	19534
#	53471
#	75454
#	84305
#	109958
#	137786
#	148563
#	179423
#	192925
#	206146
#	223855
#	254028
#	273839
#	299278
#	313266
#
# Disc length: 4577 seconds
#
# Revision: 0
# Processed by: cddbd v1.5.2PL0 Copyright (c) Steve Scherf et al.
# Submitted via: CDex 1.70beta2
#
DISCID=f011df10
DTITLE=Oregon - Troika
DYEAR=1994
DGENRE=Jazz
TTITLE0=Urumchi
TTITLE1=Les Douzilles
TTITLE2=Bombay Vice
TTITLE3=Pageant (Epilog)
TTITLE4=Charlotte's Tangle
TTITLE5=Gekko
TTITLE6=Prelude (Improv 2)
TTITLE7=Mariella
TTITLE8=Spanish Stairs (Squanto)
TTITLE9=Arctic Turn - Land Rover (Free Piece)
TTITLE10=Mexico For Sure
TTITLE11=Pale Sun
TTITLE12=I Said OK
TTITLE13=Tower
TTITLE14=Minaret
TTITLE15=Celeste
EXTD=YEAR: 1994
EXTT0=
EXTT1=
EXTT2=
EXTT3=
EXTT4=
EXTT5=
EXTT6=
EXTT7=
EXTT8=
EXTT9=
EXTT10=
EXTT11=
EXTT12=
EXTT13=
EXTT14=
EXTT15=
PLAYORDER=
